<?xml version="1.0" encoding="utf-8"?>
<!-- Generator: Adobe Illustrator 27.6.1, SVG Export Plug-In . SVG Version: 6.00 Build 0)  -->
<svg version="1.1"
	 id="svg495810" xmlns:svg="http://www.w3.org/2000/svg" xmlns:rdf="http://www.w3.org/1999/02/22-rdf-syntax-ns#" xmlns:cc="http://creativecommons.org/ns#" xmlns:dc="http://purl.org/dc/elements/1.1/"
	 xmlns="http://www.w3.org/2000/svg" xmlns:xlink="http://www.w3.org/1999/xlink" x="0px" y="0px" viewBox="0 0 1024 768"
	 style="enable-background:new 0 0 1024 768;" xml:space="preserve">
<style type="text/css">
	.st0{clip-path:url(#SVGID_00000111883644210865676230000013253319873780139438_);}
	.st1{display:none;fill:#1E2A23;}
	.st2{fill:#1E2A23;}
</style>
<g>
	<defs>
		<polygon id="SVGID_1_" points="1,1 2,1 1,2 		"/>
	</defs>
	<defs>
		<polygon id="SVGID_00000060745375586015402140000008112336460552489883_" points="-1,-1 -2,-1 -1,-2 		"/>
	</defs>
	<clipPath id="SVGID_00000065063774503960357740000012648025408819915955_">
		<use xlink:href="#SVGID_1_"  style="overflow:visible;"/>
	</clipPath>
	
		<clipPath id="SVGID_00000138534037907781886660000002385952521544274056_" style="clip-path:url(#SVGID_00000065063774503960357740000012648025408819915955_);">
		<use xlink:href="#SVGID_00000060745375586015402140000008112336460552489883_"  style="overflow:visible;"/>
	</clipPath>
</g>
<g id="slogan" transform="translate(0 0)">
</g>
<g id="title" transform="translate(0 0)">
	<path id="path495819" class="st1" d="M392.6-53.9H382l-12.1,33.4h27.1l-9.6-26.5l-7.1,19.4h3.2l3.9-10.5l5.3,14.7h-18.4l9.9-27.3
		h6.3L407.9-3h-4.6l-4.9-13.4h-30.1l-6,16.5h11l3.4-9.3h-3.2L371.2-3h-4.6l3.8-10.4h25.8L401.1,0h11.1L392.6-53.9z"/>
	<path id="path495821" class="st2" d="M369.7,330.1h-37.2v107.9h21.2v-48.6l35.6,48.6h25.8L375.8,385c11-1.6,17.4-9.3,17.4-20.7
		c0-12.1-8.8-19.9-22.5-19.9h-23.2v26.9h6v-20.9h17.1c10,0,16.4,4.8,16.4,13.9c0,8.1-3.8,15.2-17.1,15.2h-5.9l38.9,52.4h-10.7
		l-38.5-52.4h-6.3v52.4h-9.1v-95.8h31.2c19.7,0,32.6,10.8,32.6,28.2c0,10.8-4.2,19.2-13.2,24.6l3.5,4.8
		c10.1-5.7,15.8-16.3,15.8-29.4C408.4,345.1,394.6,330.1,369.7,330.1L369.7,330.1z"/>
	<path id="path495823" class="st2" d="M485.1,372.6c1-0.7,1.6-1.3,2.4-2.4c2-2.8,3.2-6.4,3.2-10.6c0-7.1-5.2-15.3-19.8-15.3h-22.3
		v47.1h25.7c10.8,0,15.8,6.3,15.8,13.4c0,6.9-4,12.8-14.1,12.8h-21.3v-18h-6v24h27.4c13.9,0,20.2-9.1,20.2-18.9
		c0-11.1-8.4-19.4-21.8-19.4h-19.7v-35h16.3c8,0,13.8,3,13.8,9.2c0,7.8-5.4,11.5-12.7,11.5h-8.2v6h8.5c18.1,0,33,8.4,33,28.5
		c0,14-10.3,26.2-29.4,26.2h-36.2v-95.8h32c17.3,0,27.9,10.5,27.9,22.2c0,4.2-0.5,7.6-1.6,10.2l5.1,3.3c1.7-3.4,2.5-7.8,2.5-13.5
		c0-14.5-12.8-28.2-34-28.2h-38.1v107.9h42.3c22,0,35.5-14.4,35.5-32.3C511.2,387.8,501.2,376.6,485.1,372.6L485.1,372.6z"/>
	<path id="path495825" class="st2" d="M558.2,350.4v-20.3h-21.2v6h15.1v8.2h-15.1v93.6h21.2v-79.3h-6v73.3h-9.1v-81.5H558.2z"/>
	<path id="path495827" class="st2" d="M623,330.1v101.8h-9.1V330.1h-34.2v20.3h19.1v-6h-13v-8.2h22.1v101.8H629V336.1h22v8.2h-13v6
		h19v-20.3H623z"/>
	<path id="path495829" class="st2" d="M714.2,330.1H677v107.9h21.2v-48.6l35.6,48.6h25.8L720.4,385c11-1.6,17.4-9.3,17.4-20.7
		c0-12.1-8.8-19.9-22.5-19.9h-23.2v26.9h6v-20.9h17.1c10,0,16.4,4.8,16.4,13.9c0,8.1-3.8,15.2-17.1,15.2h-5.9l38.9,52.4h-10.7
		l-38.5-52.4h-6.3v52.4h-9.1v-95.8h31.2c19.7,0,32.6,10.8,32.6,28.2c0,10.8-4.2,19.2-13.2,24.6l3.5,4.8
		c10.1-5.7,15.8-16.3,15.8-29.4C752.9,345.1,739.1,330.1,714.2,330.1L714.2,330.1z"/>
	<path id="path495831" class="st2" d="M801,350.4v-20.3h-21.2v6h15.1v8.2h-15.1v93.6H801v-79.3h-6v73.3h-9.1v-81.5H801z"/>
</g>
<g>
	<g>
		<path d="M315.2,438.4c-4.2-1.7-8.3-3.3-12.4-4.9c-7.6-2.9-15.1-5.9-22.7-8.9c-3.1-1.3-6.3-2.5-9.4-3.8c-1.1-0.5-2.2-0.5-3.3,0
			c-8.1,3.4-16.2,7-24.5,10.2c-5.4,2.1-10.8,4.4-16.2,6.6c-0.7,0.3-1.4,0.7-2.3,1.1c0.5-1.5,0.9-2.9,1.5-4.2
			c2.9-6.8,5.8-13.7,8.6-20.5c2.5-5.9,5.4-11.7,7.4-17.8c1.7-5.1,3.7-10.1,5.8-15c4-9.5,8.2-18.8,11.9-28.4c2.9-7.4,6.3-14.6,9-22
			c0.1-0.4,0.2-0.9,0.7-0.9c0.6-0.1,0.4,0.6,0.6,0.9c2.6,5.9,5.2,11.7,7.5,17.6c1.3,3.3,2.6,6.5,4,9.8c3.6,8.4,7.3,16.8,11,25.2
			c2.2,4.9,3.7,10.1,5.8,15c4.6,10.8,9.3,21.6,13.9,32.3C313.3,433.3,314.1,435.9,315.2,438.4z M269.5,345.4
			c-0.7,0.6-0.9,1.3-1.1,1.9c-2.7,7-6.1,13.8-8.6,20.9c-1.3,3.7-3.1,7.3-4.6,11c-2.2,5.4-4.7,10.7-6.5,16.2
			c-1.7,5.2-4.2,10.2-6.1,15.3c-1.9,5.1-4.2,10.1-6.4,15.1c-0.1,0.3-0.6,0.7-0.3,1.1c0.3,0.4,0.8,0.1,1.2-0.1c2.2-1,4.4-1.9,6.5-2.8
			c8.2-3.5,16.4-6.8,24.6-10.3c0.5-0.2,0.9-0.3,1.5,0c2.9,1.2,5.8,2.4,8.6,3.6c8,3.2,16.1,6.5,24.1,9.7c0.4,0.1,0.8,0.6,1.2,0.2
			c0.3-0.4-0.2-0.8-0.3-1.2c-2.6-6.8-6-13.2-8.5-20.1c-1.6-4.5-3.7-8.8-5.4-13.3c-2-5.4-4.5-10.5-6.8-15.8c-2-4.7-4.1-9.4-5.9-14.2
			c-0.8-2-1.8-4-2.6-5.9C272.7,352.9,271.2,349.3,269.5,345.4z"/>
	</g>
</g>
</svg>
